<svg xmlns="http://www.w3.org/2000/svg" viewBox="0 0 331.93 112.72"><defs><style>.cls-1{fill:#fff;}.cls-2{fill:#47b280;}.cls-3{fill:#fcfcfc;}.cls-4{fill:#424242;}</style></defs><title>logo-icon-lightAsset 2logo-icon</title><g id="Layer_2" data-name="Layer 2"><g id="Layer_1-2" data-name="Layer 1"><path class="cls-1" d="M102.46,79.22a4.61,4.61,0,0,0-5.08,1.36c-1.19,1.41-2,2.38-2.53,2.91a29.9,29.9,0,0,1-21.86,9q-8.62,0-13.35-2.11a2.52,2.52,0,0,1-.77-4.08l44.89-44.88,2.73-2.76V26.77h-18A3.09,3.09,0,0,1,86,21.91l4.49-6.42a49.64,49.64,0,0,0-17.45-3A47.36,47.36,0,0,0,38.25,26.89,47.46,47.46,0,0,0,23.82,61.72,47.45,47.45,0,0,0,38.25,96.54,47.36,47.36,0,0,0,73,111a47.16,47.16,0,0,0,30.32-10.39A8.41,8.41,0,0,0,106.49,94v-9.2a5.93,5.93,0,0,0-3.94-5.59ZM42.23,61.72a29.68,29.68,0,0,1,9-21.82,29.63,29.63,0,0,1,21.73-9,43.34,43.34,0,0,1,10.41,1,2.14,2.14,0,0,1,.95,3.59L46.5,73.34a1.92,1.92,0,0,1-3.21-.85A41.4,41.4,0,0,1,42.23,61.72Z"/><path class="cls-1" d="M228.82,32v75.37a3.59,3.59,0,0,1-3.59,3.59h-9.4a3.6,3.6,0,0,1-3.6-3.59V32a3.6,3.6,0,0,1,3.6-3.6h9.4A3.6,3.6,0,0,1,228.82,32Z"/><circle class="cls-2" cx="220.98" cy="13.2" r="11.11"/><path class="cls-1" d="M16.6,4.8V105.3c0,2.65-1.61,4.8-3.6,4.8H3.6c-2,0-3.6-2.15-3.6-4.8V4.8C0,2.15,1.61,0,3.6,0H13C15,0,16.6,2.15,16.6,4.8Z"/><path class="cls-1" d="M318.85,33.94c-2.59-3.66-6.6-6.87-12.06-9.59A35.28,35.28,0,0,0,291,20.17q-5,0-6.41,2.78a5.91,5.91,0,0,0-.42,1.09,42.37,42.37,0,0,1,7.74-.69A38.11,38.11,0,0,1,318.85,33.94Z"/><path class="cls-1" d="M283.41,101.26a6.31,6.31,0,0,0,1,2.65c.88,1.15,2.63,1.72,5.28,1.72a36.08,36.08,0,0,0,19.57-6.11,46.89,46.89,0,0,0,8.84-7.28,38,38,0,0,1-26.15,9.88A41.44,41.44,0,0,1,283.41,101.26Z"/><path class="cls-3" d="M330.88,81.12A3.15,3.15,0,0,0,328.56,80a2.42,2.42,0,0,0-1.29.41,40.88,40.88,0,0,1-7.46,10.22c-.56.56-1.14,1.09-1.73,1.62a46.89,46.89,0,0,1-8.84,7.28,36.08,36.08,0,0,1-19.57,6.11c-2.65,0-4.4-.57-5.28-1.72a6.31,6.31,0,0,1-1-2.65A37.9,37.9,0,0,1,264,90.56a37.93,37.93,0,0,1-11.57-27.82A37.91,37.91,0,0,1,264,34.85,38,38,0,0,1,284.19,24a5.91,5.91,0,0,1,.42-1.09Q286,20.18,291,20.17a35.28,35.28,0,0,1,15.77,4.18c5.46,2.72,9.47,5.93,12.06,9.59.32.3.65.6,1,.91,1,1,1.93,2.08,2.81,3.15a2.15,2.15,0,0,0,.88.22,3.18,3.18,0,0,0,2.28-.88,2.89,2.89,0,0,0,.92-2.15c0-1.69-1.07-3.75-3.2-6.2a37.73,37.73,0,0,0-8.27-6.88q-11.89-7.5-27.76-7.51-19.91,0-33.49,12.15-16.2,14.34-16.2,35.94A46.63,46.63,0,0,0,253.14,98q13.49,12.83,34.16,12.83A50.12,50.12,0,0,0,315.65,102,59.83,59.83,0,0,0,327,92.09q4.89-5.52,4.89-8.56A3.55,3.55,0,0,0,330.88,81.12Z"/><path class="cls-4" d="M318.85,33.94l.18.24c1.38,2.06,2.57,3.33,3.59,3.82-.88-1.07-1.8-2.12-2.81-3.15C319.5,34.54,319.17,34.24,318.85,33.94Z"/><path class="cls-4" d="M324.93,83.11a50.3,50.3,0,0,1-6.85,9.13c.59-.53,1.17-1.06,1.73-1.62a40.88,40.88,0,0,0,7.46-10.22A7.86,7.86,0,0,0,324.93,83.11Z"/><path class="cls-4" d="M118.87,20.79c0,.1.09.21.15.32l.3.52-.36-.72S118.9,20.82,118.87,20.79Z"/><path class="cls-2" d="M118.29,17.31a3.48,3.48,0,0,0,.58,3.48A5.83,5.83,0,0,1,118.29,17.31Z"/><path class="cls-1" d="M199.44,104.4a5.81,5.81,0,0,0-.83-2.72Q195.22,96,192,90.09q-5.85-10.7-14.54-28.49l-4.17-8.47a2.73,2.73,0,0,1,.15-2.67L183.26,35q7.29-11.28,9.68-14.53c2.29-3,3.43-5.14,3.43-6.4a5.13,5.13,0,0,0-1.07-2.89c-.72-1-1.4-1.54-2.05-1.54q-1.47,0-4.23,5.25-5.27,9.8-16.22,27.85a2.74,2.74,0,0,1-4.81-.24L155.07,15.55a6,6,0,0,0-5.41-3.41H124.24a6,6,0,0,0-5.95,5.17,5.83,5.83,0,0,0,.58,3.48s0,.08.09.12l.36.72L140.44,64v0l.17.32.68,1.35a2.83,2.83,0,0,1-.4,1.29Q129.26,85.79,119,100.18q-4.41,6-4.41,8.21a5.09,5.09,0,0,0,1.07,2.8c.71,1,1.38,1.53,2,1.53q1.65,0,5.2-6.71,8.92-16.5,18.8-31.51a2.72,2.72,0,0,1,3.67-.83l.15.3a2.1,2.1,0,0,0,.5.31l2,3.72,14.42,29.38a6,6,0,0,0,5.39,3.35h25.73a5.83,5.83,0,0,0,2.94-.77h.11A3.55,3.55,0,0,0,199.44,104.4Z"/></g></g></svg>